# File units = meters
mtllib Catcher Profile - bottom_drink_catcher_profile.mtl
g bottom_drink_catcher_profile
v 0.201631 -0.075 0.122509 
v 0.199638 -0.0771213 0.121783 
v 0.200664 -0.0771213 0.118964 
v 0.202657 -0.075 0.11969 
v 0.202657 0.075 0.11969 
v 0.201631 0.075 0.122509 
v 0.200664 0.0771213 0.118964 
v 0.199638 0.0771213 0.121783 
v 0.14245 -0.0162635 0.100969 
v 0.14245 0.0162635 0.100969 
v 0.136856 0.00595284 0.0989327 
v 0.136856 -0.00595284 0.0989327 
v 0.143476 -0.0162635 0.0981496 
v 0.143476 0.0162635 0.0981496 
v 0.137882 -0.00595284 0.0961136 
v 0.137882 0.00595284 0.0961136 
vn 0.664463 -0.707107 0.241845 
vn 0.939693 -2.09427e-17 0.34202 
vn 0.664463 0.707107 0.241845 
vn -0.34202 -5.75396e-17 0.939693 
vn 0.34202 5.75396e-17 -0.939693 
vn -0.664463 0.707107 -0.241845 
vn -0.664463 -0.707107 -0.241845 
vn -0.907673 -0.258819 -0.330366 
vn -0.907673 0.258819 -0.330366 
vn -0.664463 0.707107 -0.241845 
vn -0.664463 -0.707107 -0.241845 
usemtl 0.498039_0.498039_0.498039_0.000000_0.501961
o mesh0
f 1//1 2//1 3//1 
f 3//1 4//1 1//1 
o mesh1
f 1//2 4//2 5//2 
f 5//2 6//2 1//2 
o mesh2
f 6//3 5//3 7//3 
f 7//3 8//3 6//3 
o mesh3
f 9//4 10//4 11//4 
f 6//4 8//4 10//4 
f 9//4 2//4 1//4 
f 10//4 9//4 6//4 
f 11//4 12//4 9//4 
f 1//4 6//4 9//4 
o mesh4
f 5//5 13//5 14//5 
f 14//5 13//5 15//5 
f 15//5 16//5 14//5 
f 13//5 5//5 4//5 
f 4//5 3//5 13//5 
f 14//5 7//5 5//5 
o mesh5
f 14//6 10//6 8//6 
f 8//6 7//6 14//6 
o mesh6
f 13//7 9//7 12//8 
f 15//8 12//8 11//9 
f 16//9 11//9 10//10 
f 10//10 14//10 16//9 
f 11//9 16//9 15//8 
f 12//8 15//8 13//7 
o mesh7
f 13//11 3//11 2//11 
f 2//11 9//11 13//11 
