# File units = meters
mtllib Cone Point Cloud Test - Cone.mtl
g Cone
v -0.0767809 0 0.0238 
v -0.0225 0 0.33 
v -0.0194856 0.01125 0.33 
v -0.0664942 0.0383905 0.0238 
v -0.01125 0.0194856 0.33 
v -0.0383905 0.0664942 0.0238 
v -1.37773e-18 0.0225 0.33 
v -4.70147e-18 0.0767809 0.0238 
v 0.01125 0.0194856 0.33 
v 0.0383905 0.0664942 0.0238 
v 0.0194856 0.01125 0.33 
v 0.0664942 0.0383905 0.0238 
v 0.0225 8.26637e-18 0.33 
v 0.0767809 9.40295e-18 0.0238 
v 0.0194856 -0.01125 0.33 
v 0.0664942 -0.0383905 0.0238 
v 0.01125 -0.0194856 0.33 
v 0.0383905 -0.0664942 0.0238 
v 4.13318e-18 -0.0225 0.33 
v 1.41044e-17 -0.0767809 0.0238 
v -0.01125 -0.0194856 0.33 
v -0.0383905 -0.0664942 0.0238 
v -0.0194856 -0.01125 0.33 
v -0.0664942 -0.0383905 0.0238 
v 0.00831589 0.0144035 0.33 
v -4.7114e-18 0.0166318 0.33 
v 0.0144035 0.00831589 0.33 
v 0.0166318 9.42279e-18 0.33 
v -0.00831589 0.0144035 0.33 
v -0.00831589 -0.0144035 0.33 
v -0.0144035 -0.00831589 0.33 
v 1.78272e-17 -0.0166318 0.33 
v 0.0144035 -0.00831589 0.33 
v 0.00831589 -0.0144035 0.33 
v -0.0144035 0.00831589 0.33 
v -0.0166318 0 0.33 
v -0.0144035 -0.00831589 0.323 
v -0.0166318 0 0.323 
v -0.00831589 -0.0144035 0.323 
v 3.05521e-18 -0.0166318 0.323 
v 0.00831589 -0.0144035 0.323 
v 0.0144035 -0.00831589 0.323 
v 0.0166318 9.42279e-18 0.323 
v 0.0144035 0.00831589 0.323 
v 0.00831589 0.0144035 0.323 
v -1.0184e-18 0.0166318 0.323 
v -0.00831589 0.0144035 0.323 
v -0.0144035 0.00831589 0.323 
v -0.0709127 0 0.0168 
v -0.0614122 0.0354563 0.0168 
v -0.0354563 0.0614122 0.0168 
v -4.34215e-18 0.0709127 0.0168 
v 0.0354563 0.0614122 0.0168 
v 0.0614122 0.0354563 0.0168 
v 0.0709127 2.60529e-17 0.0168 
v 0.0614122 -0.0354563 0.0168 
v 0.0354563 -0.0614122 0.0168 
v 1.30264e-17 -0.0709127 0.0168 
v -0.0354563 -0.0614122 0.0168 
v -0.0614122 -0.0354563 0.0168 
v 0.10516 0.1015 0.0238 
v 0.1015 0.10516 0.0238 
v 0.1065 0.0965 0.0238 
v 0.0965 0.1065 0.0238 
v -0.0965 0.1065 0.0238 
v -0.10516 -0.1015 0.0238 
v -0.1015 -0.10516 0.0238 
v -0.1065 -0.0965 0.0238 
v -0.1015 0.10516 0.0238 
v -0.10516 0.1015 0.0238 
v -0.1065 0.0965 0.0238 
v -0.0965 -0.1065 0.0238 
v 0.0965 -0.1065 0.0238 
v 0.1015 -0.10516 0.0238 
v 0.10516 -0.1015 0.0238 
v 0.1065 -0.0965 0.0238 
v -0.0965 0.1065 0 
v 0.0965 0.1065 0 
v -0.1065 -0.0965 0 
v -0.1065 0.0965 0 
v 0.0965 -0.1065 0 
v -0.0965 -0.1065 0 
v 0.1065 -0.0965 0 
v 0.1065 0.0965 0 
v 0.1015 0.10516 0 
v 0.10516 0.1015 0 
v -0.1015 0.10516 0 
v -0.10516 0.1015 0 
v -0.1015 -0.10516 0 
v -0.10516 -0.1015 0 
v 0.1015 -0.10516 0 
v 0.10516 -0.1015 0 
v -0.0965 0.0995 0 
v 0.0965 0.0995 0 
v 0.098 0.0990981 0 
v 0.0995 0.0965 0 
v 0.0995 -0.0965 0 
v 0.0990981 0.098 0 
v 0.0990981 -0.098 0 
v 0.0965 -0.0995 0 
v -0.0965 -0.0995 0 
v 0.098 -0.0990981 0 
v -0.098 -0.0990981 0 
v -0.0995 -0.0965 0 
v -0.0995 0.0965 0 
v -0.0990981 -0.098 0 
v -0.0990981 0.098 0 
v -0.098 0.0990981 0 
v 0.0995 -0.0965 0.0168 
v 0.0990981 -0.098 0.0168 
v 0.098 -0.0990981 0.0168 
v -0.0990981 0.098 0.0168 
v -0.098 0.0990981 0.0168 
v -0.0995 0.0965 0.0168 
v 0.0995 0.0965 0.0168 
v 0.098 0.0990981 0.0168 
v 0.0990981 0.098 0.0168 
v 0.0965 0.0995 0.0168 
v 0.0965 -0.0995 0.0168 
v -0.098 -0.0990981 0.0168 
v -0.0990981 -0.098 0.0168 
v -0.0965 -0.0995 0.0168 
v -0.0965 0.0995 0.0168 
v -0.0995 -0.0965 0.0168 
vn -0.984648 0 0.174551 
vn -0.85273 0.492324 0.174551 
vn -0.492324 0.85273 0.174551 
vn -2.73295e-16 0.984648 0.174551 
vn 0.492324 0.85273 0.174551 
vn 0.85273 0.492324 0.174551 
vn 0.984648 5.46589e-16 0.174551 
vn 0.85273 -0.492324 0.174551 
vn 0.492324 -0.85273 0.174551 
vn 8.19884e-16 -0.984648 0.174551 
vn -0.492324 -0.85273 0.174551 
vn -0.85273 -0.492324 0.174551 
vn 0 0 1 
vn 0.866025 0.5 0 
vn 1 2.44929e-16 0 
vn 0.5 0.866025 0 
vn 0.866025 0.5 0 
vn -1.07188e-15 1 0 
vn 0.5 0.866025 0 
vn -0.5 0.866025 0 
vn -1.07188e-15 1 0 
vn -0.866025 0.5 0 
vn -0.5 0.866025 0 
vn -1 -5.66554e-16 0 
vn -0.866025 0.5 0 
vn -0.866025 -0.5 0 
vn -1 -5.66554e-16 0 
vn -0.5 -0.866025 0 
vn -0.866025 -0.5 0 
vn 2.83277e-16 -1 0 
vn -0.5 -0.866025 0 
vn 0.5 -0.866025 0 
vn 2.83277e-16 -1 0 
vn 0.866025 -0.5 0 
vn 0.5 -0.866025 0 
vn 0.984648 0 -0.174551 
vn 0.85273 -0.492324 -0.174551 
vn 0.492324 -0.85273 -0.174551 
vn 2.73295e-16 -0.984648 -0.174551 
vn -0.492324 -0.85273 -0.174551 
vn -0.85273 -0.492324 -0.174551 
vn -0.984648 -5.46589e-16 -0.174551 
vn -0.85273 0.492324 -0.174551 
vn -0.492324 0.85273 -0.174551 
vn -8.19884e-16 0.984648 -0.174551 
vn 0.492324 0.85273 -0.174551 
vn 0.85273 0.492324 -0.174551 
vn 0.984648 0 -0.174551 
vn 0 0 1 
vn 0 1 0 
vn -1 1.30308e-16 0 
vn 0 -1 0 
vn 1 -1.30308e-16 0 
vn -6.12323e-17 1 0 
vn 0.5 0.866025 0 
vn 0.866025 0.5 0 
vn 1 1.22465e-16 0 
vn 6.12323e-17 1 0 
vn -0.5 0.866025 0 
vn -0.866025 0.5 0 
vn -1 1.22465e-16 0 
vn 1.83697e-16 -1 0 
vn -0.5 -0.866025 0 
vn -0.866025 -0.5 0 
vn -1 -2.44929e-16 0 
vn -1.83697e-16 -1 0 
vn 0.5 -0.866025 0 
vn 0.866025 -0.5 0 
vn 1 -2.44929e-16 0 
vn 0 0 -1 
vn 0 -1 0 
vn 1 -1.30308e-16 0 
vn 0 1 0 
vn -1 1.30308e-16 0 
vn -0.866025 -0.5 0 
vn -0.5 -0.866025 0 
vn 6.12323e-17 -1 0 
vn 0.866025 -0.5 0 
vn 1 -1.22465e-16 0 
vn 0.5 -0.866025 0 
vn 0.866025 -0.5 0 
vn -6.12323e-17 -1 0 
vn 0.5 -0.866025 0 
vn 0.866025 0.5 0 
vn 1 2.44929e-16 0 
vn 0.5 0.866025 0 
vn 0.866025 0.5 0 
vn -1.83697e-16 1 0 
vn 0.5 0.866025 0 
vn -0.866025 0.5 0 
vn -1 2.44929e-16 0 
vn -0.5 0.866025 0 
vn -0.866025 0.5 0 
vn 1.83697e-16 1 0 
vn -0.5 0.866025 0 
usemtl 0.615686_0.811765_0.929412_0.000000_0.000000
o mesh0
f 1//1 2//1 3//2 
f 4//2 3//2 5//3 
f 6//3 5//3 7//4 
f 8//4 7//4 9//5 
f 10//5 9//5 11//6 
f 12//6 11//6 13//7 
f 14//7 13//7 15//8 
f 16//8 15//8 17//9 
f 18//9 17//9 19//10 
f 20//10 19//10 21//11 
f 22//11 21//11 23//12 
f 24//12 23//12 2//1 
f 2//1 1//1 24//12 
f 23//12 24//12 22//11 
f 21//11 22//11 20//10 
f 19//10 20//10 18//9 
f 17//9 18//9 16//8 
f 15//8 16//8 14//7 
f 13//7 14//7 12//6 
f 11//6 12//6 10//5 
f 9//5 10//5 8//4 
f 7//4 8//4 6//3 
f 5//3 6//3 4//2 
f 3//2 4//2 1//1 
o mesh1
f 11//13 9//13 25//13 
f 7//13 26//13 25//13 
f 11//13 27//13 28//13 
f 25//13 9//13 7//13 
f 25//13 27//13 11//13 
f 5//13 29//13 26//13 
f 21//13 30//13 31//13 
f 19//13 32//13 30//13 
f 15//13 33//13 34//13 
f 13//13 28//13 33//13 
f 26//13 7//13 5//13 
f 5//13 3//13 35//13 
f 23//13 31//13 36//13 
f 30//13 21//13 19//13 
f 17//13 34//13 32//13 
f 33//13 15//13 13//13 
f 35//13 29//13 5//13 
f 2//13 36//13 35//13 
f 31//13 23//13 21//13 
f 34//13 17//13 15//13 
f 35//13 3//13 2//13 
f 32//13 19//13 17//13 
f 36//13 2//13 23//13 
f 28//13 13//13 11//13 
o mesh2
f 37//14 38//15 36//15 
f 39//16 37//14 31//17 
f 40//18 39//16 30//19 
f 41//20 40//18 32//21 
f 42//22 41//20 34//23 
f 43//24 42//22 33//25 
f 44//26 43//24 28//27 
f 45//28 44//26 27//29 
f 46//30 45//28 25//31 
f 47//32 46//30 26//33 
f 48//34 47//32 29//35 
f 38//15 48//34 35//34 
f 35//34 36//15 38//15 
f 29//35 35//34 48//34 
f 26//33 29//35 47//32 
f 25//31 26//33 46//30 
f 27//29 25//31 45//28 
f 28//27 27//29 44//26 
f 33//25 28//27 43//24 
f 34//23 33//25 42//22 
f 32//21 34//23 41//20 
f 30//19 32//21 40//18 
f 31//17 30//19 39//16 
f 36//15 31//17 37//14 
o mesh3
f 49//36 50//37 48//37 
f 50//37 51//38 47//38 
f 51//38 52//39 46//39 
f 52//39 53//40 45//40 
f 53//40 54//41 44//41 
f 54//41 55//42 43//42 
f 55//42 56//43 42//43 
f 56//43 57//44 41//44 
f 57//44 58//45 40//45 
f 58//45 59//46 39//46 
f 59//46 60//47 37//47 
f 60//47 49//36 38//48 
f 38//48 37//47 60//47 
f 37//47 39//46 59//46 
f 39//46 40//45 58//45 
f 40//45 41//44 57//44 
f 41//44 42//43 56//43 
f 42//43 43//42 55//42 
f 43//42 44//41 54//41 
f 44//41 45//40 53//40 
f 45//40 46//39 52//39 
f 46//39 47//38 51//38 
f 47//38 48//37 50//37 
f 48//37 38//48 49//36 
o mesh4
f 10//49 61//49 62//49 
f 10//49 12//49 63//49 
f 63//49 61//49 10//49 
f 62//49 64//49 10//49 
f 64//49 65//49 8//49 
f 22//49 66//49 67//49 
f 22//49 24//49 68//49 
f 8//49 10//49 64//49 
f 4//49 69//49 70//49 
f 4//49 6//49 65//49 
f 68//49 66//49 22//49 
f 65//49 6//49 8//49 
f 65//49 69//49 4//49 
f 71//49 68//49 1//49 
f 67//49 72//49 22//49 
f 70//49 71//49 4//49 
f 24//49 1//49 68//49 
f 1//49 4//49 71//49 
f 72//49 73//49 20//49 
f 16//49 74//49 75//49 
f 16//49 18//49 73//49 
f 20//49 22//49 72//49 
f 73//49 74//49 16//49 
f 76//49 63//49 14//49 
f 73//49 18//49 20//49 
f 14//49 16//49 76//49 
f 75//49 76//49 16//49 
f 12//49 14//49 63//49 
o mesh5
f 77//50 65//50 64//50 
f 64//50 78//50 77//50 
o mesh6
f 79//51 68//51 71//51 
f 71//51 80//51 79//51 
o mesh7
f 81//52 73//52 72//52 
f 72//52 82//52 81//52 
o mesh8
f 76//53 83//53 84//53 
f 84//53 63//53 76//53 
o mesh9
f 78//54 64//54 62//55 
f 85//55 62//55 61//56 
f 86//56 61//56 63//57 
f 63//57 84//57 86//56 
f 61//56 86//56 85//55 
f 62//55 85//55 78//54 
o mesh10
f 65//58 77//58 87//59 
f 69//59 87//59 88//60 
f 70//60 88//60 80//61 
f 80//61 71//61 70//60 
f 88//60 70//60 69//59 
f 87//59 69//59 65//58 
o mesh11
f 82//62 72//62 67//63 
f 89//63 67//63 66//64 
f 90//64 66//64 68//65 
f 68//65 79//65 90//64 
f 66//64 90//64 89//63 
f 67//63 89//63 82//62 
o mesh12
f 73//66 81//66 91//67 
f 74//67 91//67 92//68 
f 75//68 92//68 83//69 
f 83//69 76//69 75//68 
f 92//68 75//68 74//67 
f 91//67 74//67 73//66 
o mesh13
f 87//70 77//70 93//70 
f 94//70 93//70 77//70 
f 77//70 78//70 94//70 
f 85//70 95//70 94//70 
f 86//70 84//70 96//70 
f 97//70 96//70 84//70 
f 94//70 78//70 85//70 
f 85//70 86//70 98//70 
f 84//70 83//70 97//70 
f 92//70 99//70 97//70 
f 98//70 95//70 85//70 
f 97//70 83//70 92//70 
f 91//70 81//70 100//70 
f 101//70 100//70 81//70 
f 96//70 98//70 86//70 
f 91//70 102//70 99//70 
f 81//70 82//70 101//70 
f 89//70 103//70 101//70 
f 90//70 79//70 104//70 
f 105//70 104//70 79//70 
f 99//70 92//70 91//70 
f 101//70 82//70 89//70 
f 90//70 106//70 103//70 
f 79//70 80//70 105//70 
f 88//70 107//70 105//70 
f 88//70 87//70 108//70 
f 100//70 102//70 91//70 
f 104//70 106//70 90//70 
f 108//70 107//70 88//70 
f 103//70 89//70 90//70 
f 93//70 108//70 87//70 
f 105//70 80//70 88//70 
o mesh14
f 109//70 56//70 55//70 
f 57//70 110//70 111//70 
f 57//70 56//70 109//70 
f 51//70 112//70 113//70 
f 51//70 50//70 114//70 
f 55//70 115//70 109//70 
f 109//70 110//70 57//70 
f 114//70 112//70 51//70 
f 54//70 116//70 117//70 
f 54//70 53//70 118//70 
f 111//70 119//70 57//70 
f 60//70 120//70 121//70 
f 60//70 59//70 122//70 
f 113//70 123//70 51//70 
f 123//70 118//70 52//70 
f 118//70 116//70 54//70 
f 119//70 58//70 57//70 
f 122//70 59//70 58//70 
f 122//70 120//70 60//70 
f 124//70 114//70 49//70 
f 52//70 51//70 123//70 
f 117//70 115//70 54//70 
f 58//70 119//70 122//70 
f 49//70 60//70 124//70 
f 53//70 52//70 118//70 
f 121//70 124//70 60//70 
f 55//70 54//70 115//70 
f 50//70 49//70 114//70 
o mesh15
f 94//71 118//71 123//71 
f 123//71 93//71 94//71 
o mesh16
f 105//72 114//72 124//72 
f 124//72 104//72 105//72 
o mesh17
f 101//73 122//73 119//73 
f 119//73 100//73 101//73 
o mesh18
f 115//74 96//74 97//74 
f 97//74 109//74 115//74 
o mesh19
f 98//75 96//74 115//74 
f 95//76 98//75 117//75 
f 94//77 95//76 116//76 
f 116//76 118//77 94//77 
f 117//75 116//76 95//76 
f 115//74 117//75 98//75 
o mesh20
f 112//78 114//79 105//79 
f 113//80 112//78 107//81 
f 123//82 113//80 108//83 
f 108//83 93//82 123//82 
f 107//81 108//83 113//80 
f 105//79 107//81 112//78 
o mesh21
f 106//84 104//85 124//85 
f 103//86 106//84 121//87 
f 101//88 103//86 120//89 
f 120//89 122//88 101//88 
f 121//87 120//89 103//86 
f 124//85 121//87 106//84 
o mesh22
f 110//90 109//91 97//91 
f 111//92 110//90 99//93 
f 119//94 111//92 102//95 
f 102//95 100//94 119//94 
f 99//93 102//95 111//92 
f 97//91 99//93 110//90 
