# File units = meters
mtllib Catcher Profile - left_drink_catcher_profile.mtl
g left_drink_catcher_profile
v 0.137146 -5.86885e-18 0.0958456 
v 0.214101 7.07756e-18 -0.115585 
v 0.21692 7.01473e-18 -0.114559 
v 0.139965 -5.93168e-18 0.0968716 
v 0.138791 0.00880172 0.0964444 
v 0.215746 0.00880172 -0.114986 
v 0.143476 0.0162635 0.0981496 
v 0.220431 0.0162635 -0.113281 
v 0.200664 0.0771213 0.118964 
v 0.277619 0.0771213 -0.0924666 
v 0.222424 0.0141421 -0.112556 
v 0.21835 0.00765367 -0.114039 
v 0.279612 0.075 -0.0917411 
v 0.14547 0.0141421 0.0988751 
v 0.202657 0.075 0.11969 
v 0.141396 0.00765367 0.0973923 
vn 3.7494e-33 -1 -6.12323e-17 
vn -0.939693 1.81755e-16 -0.34202 
vn -0.868163 0.382683 -0.315985 
vn -0.664463 0.707107 -0.241845 
vn 0.34202 5.75396e-17 -0.939693 
vn -0.34202 -5.75396e-17 0.939693 
vn 0.664463 0.707107 0.241845 
vn 0.664463 -0.707107 0.241845 
vn 0.868163 -0.382683 0.315985 
vn 0.939693 -1.81755e-16 0.34202 
usemtl 0.800000_0.800000_0.800000_0.000000_0.301961
o mesh0
f 1//1 2//1 3//1 
f 3//1 4//1 1//1 
o mesh1
f 2//2 1//2 5//3 
f 6//3 5//3 7//4 
f 7//4 8//4 6//3 
f 5//3 6//3 2//2 
o mesh2
f 9//4 10//4 8//4 
f 8//4 7//4 9//4 
o mesh3
f 8//5 11//5 12//5 
f 11//5 8//5 10//5 
f 6//5 12//5 3//5 
f 10//5 13//5 11//5 
f 12//5 6//5 8//5 
f 3//5 2//5 6//5 
o mesh4
f 7//6 14//6 15//6 
f 7//6 5//6 16//6 
f 16//6 14//6 7//6 
f 5//6 1//6 4//6 
f 4//6 16//6 5//6 
f 15//6 9//6 7//6 
o mesh5
f 10//7 9//7 15//7 
f 15//7 13//7 10//7 
o mesh6
f 15//8 14//8 11//8 
f 11//8 13//8 15//8 
o mesh7
f 12//9 11//8 14//8 
f 3//10 12//9 16//9 
f 16//9 4//10 3//10 
f 14//8 16//9 12//9 
