# File units = meters
mtllib Catcher Profile - right_drink_catcher_profile.mtl
g right_drink_catcher_profile
v 0.277619 -0.0771213 -0.0924666 
v 0.279612 -0.075 -0.0917411 
v 0.202657 -0.075 0.11969 
v 0.200664 -0.0771213 0.118964 
v 0.222424 -0.0141421 -0.112556 
v 0.14547 -0.0141421 0.0988751 
v 0.21835 -0.00765367 -0.114039 
v 0.21692 7.01473e-18 -0.114559 
v 0.139965 -5.93168e-18 0.0968716 
v 0.141396 -0.00765367 0.0973923 
v 0.138791 -0.00880172 0.0964444 
v 0.143476 -0.0162635 0.0981496 
v 0.137146 -5.86885e-18 0.0958456 
v 0.220431 -0.0162635 -0.113281 
v 0.215746 -0.00880172 -0.114986 
v 0.214101 7.07756e-18 -0.115585 
vn 0.664463 -0.707107 0.241845 
vn 0.664463 0.707107 0.241845 
vn 0.868163 0.382683 0.315985 
vn 0.939693 -1.81755e-16 0.34202 
vn 0.664463 0.707107 0.241845 
vn 0.868163 0.382683 0.315985 
vn -0.34202 -5.75396e-17 0.939693 
vn 0.34202 5.75396e-17 -0.939693 
vn -0.664463 -0.707107 -0.241845 
vn -0.868163 -0.382683 -0.315985 
vn -0.939693 1.81755e-16 -0.34202 
vn -0.664463 -0.707107 -0.241845 
vn -3.7494e-33 1 6.12323e-17 
usemtl 0.800000_0.800000_0.800000_0.000000_0.301961
o mesh0
f 1//1 2//1 3//1 
f 3//1 4//1 1//1 
o mesh1
f 3//2 2//2 5//2 
f 5//2 6//2 3//2 
o mesh2
f 7//3 8//4 9//4 
f 5//5 7//3 10//6 
f 10//6 6//5 5//5 
f 9//4 10//6 7//3 
o mesh3
f 11//7 12//7 6//7 
f 12//7 4//7 3//7 
f 11//7 10//7 9//7 
f 3//7 6//7 12//7 
f 6//7 10//7 11//7 
f 9//7 13//7 11//7 
o mesh4
f 14//8 5//8 2//8 
f 14//8 15//8 7//8 
f 7//8 5//8 14//8 
f 16//8 8//8 7//8 
f 7//8 15//8 16//8 
f 2//8 1//8 14//8 
o mesh5
f 14//9 12//9 11//10 
f 15//10 11//10 13//11 
f 13//11 16//11 15//10 
f 11//10 15//10 14//9 
o mesh6
f 4//12 12//12 14//12 
f 14//12 1//12 4//12 
o mesh7
f 9//13 8//13 16//13 
f 16//13 13//13 9//13 
